<?xml version="1.0" encoding="iso-8859-1"?>
<!-- Generator: Adobe Illustrator 16.0.0, SVG Export Plug-In . SVG Version: 6.00 Build 0)  -->
<!DOCTYPE svg PUBLIC "-//W3C//DTD SVG 1.1//EN" "http://www.w3.org/Graphics/SVG/1.1/DTD/svg11.dtd">
<svg version="1.1" id="Capa_1" xmlns="http://www.w3.org/2000/svg" xmlns:xlink="http://www.w3.org/1999/xlink" x="0px" y="0px"
	 width="34.236px" height="34.236px" viewBox="0 0 34.236 34.236" style="enable-background:new 0 0 34.236 34.236;"
	 xml:space="preserve">
<g>
	<path d="M23.328,18.972c-2.374,1.541-4.434,2.438-6.167,2.818l0.226,4.356l-5.868,3.808l-0.506-9.756L2.312,15.76l5.867-3.807
		l3.889,1.984c1.056-1.429,2.715-2.943,5.088-4.482c6.254-4.058,15.084-6.76,16.789-4.132S29.583,14.912,23.328,18.972z
		 M9.476,23.929c-0.947,0.614-4.45,0.302-4.45,0.302s1.143-3.325,2.091-3.939c0.31-0.2,0.656-0.293,1.006-0.304
		c-1.22-0.658-2.751-0.647-3.996,0.159C2.314,21.325,0,27.494,0,27.494s6.575,0.402,8.391-0.773
		c1.244-0.809,1.878-2.202,1.773-3.583C10.011,23.449,9.786,23.727,9.476,23.929z"/>
</g>
<g>
</g>
<g>
</g>
<g>
</g>
<g>
</g>
<g>
</g>
<g>
</g>
<g>
</g>
<g>
</g>
<g>
</g>
<g>
</g>
<g>
</g>
<g>
</g>
<g>
</g>
<g>
</g>
<g>
</g>
</svg>
