<?xml version="1.0" encoding="iso-8859-1"?>
<!-- Generator: Adobe Illustrator 19.0.0, SVG Export Plug-In . SVG Version: 6.00 Build 0)  -->
<svg version="1.1" id="Layer_1" xmlns="http://www.w3.org/2000/svg" xmlns:xlink="http://www.w3.org/1999/xlink" x="0px" y="0px"
	 viewBox="0 0 512 512" style="enable-background:new 0 0 512 512;" xml:space="preserve">
<g>
	<g>
		<g>
			<path d="M448,469.333h-42.667v-82.325c0-35.684-17.822-68.993-47.505-88.755L294.456,256l63.384-42.261
				c29.671-19.754,47.493-53.063,47.493-88.747V42.667H448c11.782,0,21.333-9.551,21.333-21.333C469.333,9.551,459.782,0,448,0h-64
				H128H64C52.218,0,42.667,9.551,42.667,21.333c0,11.782,9.551,21.333,21.333,21.333h42.667v82.325
				c0,35.684,17.822,68.993,47.505,88.755L217.544,256l-63.384,42.261c-29.671,19.754-47.493,53.063-47.493,88.747v82.325H64
				c-11.782,0-21.333,9.551-21.333,21.333S52.218,512,64,512h64h256h64c11.782,0,21.333-9.551,21.333-21.333
				S459.782,469.333,448,469.333z M149.333,124.992V42.667h213.333v82.325c0,21.416-10.689,41.392-28.484,53.24L256,230.36
				l-78.171-52.12C160.022,166.384,149.333,146.408,149.333,124.992z M149.333,469.333v-82.325c0-21.416,10.689-41.392,28.484-53.24
				L256,281.64l78.171,52.12c17.807,11.855,28.496,31.832,28.496,53.248v82.325H149.333z"/>
			<path d="M273.751,190.915c6.535-9.804,3.884-23.049-5.919-29.583l-54.499-36.326c0-0.001,0-18.35,0-18.35
				c0-11.782-9.551-21.333-21.333-21.333c-11.782,0-21.333,9.551-21.333,21.333v18.347c0,14.266,7.114,27.552,18.964,35.48
				l54.538,36.351C253.972,203.369,267.217,200.719,273.751,190.915z"/>
			<path d="M322.37,351.517l-54.538-36.351c-9.804-6.535-23.049-3.884-29.583,5.919c-6.535,9.804-3.884,23.049,5.919,29.583
				l54.499,36.326c0,0.001,0,18.35,0,18.35c0,11.782,9.551,21.333,21.333,21.333s21.333-9.551,21.333-21.333v-18.347
				C341.333,372.732,334.219,359.446,322.37,351.517z"/>
		</g>
	</g>
</g>
<g>
</g>
<g>
</g>
<g>
</g>
<g>
</g>
<g>
</g>
<g>
</g>
<g>
</g>
<g>
</g>
<g>
</g>
<g>
</g>
<g>
</g>
<g>
</g>
<g>
</g>
<g>
</g>
<g>
</g>
</svg>
